<?xml version="1.0" encoding="UTF-8" standalone="no"?>
<!-- Created with Inkscape (http://www.inkscape.org/) -->
<svg id="svg2" xmlns:rdf="http://www.w3.org/1999/02/22-rdf-syntax-ns#" xmlns="http://www.w3.org/2000/svg" xml:space="preserve" height="223.05" viewBox="0 0 562.94153 223.05487" width="562.94" version="1.1" xmlns:cc="http://creativecommons.org/ns#" xmlns:dc="http://purl.org/dc/elements/1.1/"><metadata id="metadata8"><rdf:RDF><cc:Work rdf:about=""><dc:format>image/svg+xml</dc:format><dc:type rdf:resource="http://purl.org/dc/dcmitype/StillImage"/><dc:title/></cc:Work></rdf:RDF></metadata><g id="g10" transform="matrix(1.25 0 0 -1.25 -530.25 672.5)" fill="#2e4c5d"><g id="g22" transform="translate(698.02 481.72)"><path id="path24" d="m0 0c0 20.01-10.277 37.657-25.823 47.964l-4.036-6.067c13.586-9 22.569-24.416 22.569-41.897 0-16.439-7.94-31.06-20.185-40.227l4.382-5.822c14.011 10.499 23.093 27.234 23.093 46.049" fill="#2e4c5d"/></g><g id="g26" transform="translate(590.27 481.72)"><path id="path28" d="m0 0c0 24.15 17.136 44.369 39.885 49.15l-1.516 7.132c-26.045-5.481-45.659-28.633-45.659-56.282 0-26.709 18.301-49.221 43.021-55.663l2.047 7.002c-21.693 5.552-37.778 25.262-37.778 48.661" fill="#2e4c5d"/></g><g id="g4263"><g id="g30" transform="translate(640.5 528.19)"><path id="path32" d="m0 0c-25.623 0-46.47-20.847-46.47-46.471 0-4.466 0.638-8.787 1.821-12.879l7.093 1.725c-1.053 3.537-1.623 7.279-1.623 11.154 0 21.604 17.575 39.18 39.179 39.18 6.122 0 11.917-1.412 17.082-3.927l2.75 6.763c-6.019 2.852-12.74 4.455-19.832 4.455" fill="#2e4c5d"/></g><g id="g34" transform="translate(679.89 506.34)"><path id="path36" d="m0 0-5.976-4.187c3.655-5.954 5.77-12.952 5.77-20.435 0-21.603-17.575-39.179-39.18-39.179-6.709 0-13.028 1.698-18.555 4.683l-3.942-6.147c6.671-3.707 14.34-5.826 22.497-5.826 25.624 0 46.471 20.846 46.471 46.469 0 9.04-2.6 17.479-7.085 24.622" fill="#2e4c5d"/></g></g><g id="g4257" transform="matrix(-.70711 .70711 -.70711 -.70711 1434 369.45)"><g id="g38" transform="translate(640.5 453.92)"><path id="path40" d="m0 0c-15.33 0-27.801 12.472-27.801 27.802 0 1.08 0.068 2.142 0.188 3.191l-7.185 1.28c-0.186-1.466-0.294-2.955-0.294-4.471 0-19.35 15.741-35.093 35.092-35.093 4.008 0 7.857 0.684 11.446 1.928l-2.63 6.803c-2.772-0.929-5.734-1.44-8.816-1.44" fill="#2e4c5d"/></g><g id="g42" transform="translate(675.59 481.72)"><path id="path44" d="m0 0c0 19.352-15.742 35.093-35.093 35.093-9.781 0-18.633-4.03-25-10.509l4.905-5.404c5.063 5.306 12.197 8.622 20.095 8.622 15.331 0 27.802-12.472 27.802-27.802 0-5.672-1.71-10.95-4.639-15.352l6.52-3.334c3.423 5.415 5.41 11.82 5.41 18.686" fill="#2e4c5d"/></g></g><g id="g46" transform="translate(479.8 399.54)"><path id="path48" d="m0 0h-34.735c-12.054 0-15.747-5.702-15.747-17.237 0-11.6 3.693-17.239 15.747-17.239h34.735v-4.924h-34.735c-14.84 0-20.867 7.257-20.867 22.163 0 14.775 5.897 22.163 20.867 22.163h34.735v-4.926z" fill="#2e4c5d"/></g><path id="path50" d="m494.26 360.14h-5.055v44.326h5.055v-44.326z"/><g id="g52" transform="translate(545.32 381.33)"><path id="path54" d="m0 0c7.776 0 10.369 4.925 10.369 9.331 0 4.342-2.463 9.332-10.369 9.332h-33.309v-18.663h33.309zm-38.364 23.135h37.975c10.758 0 15.877-5.703 15.877-13.285 0-6.415-3.759-10.758-9.85-12.119 5.832-1.555 8.684-5.573 8.684-10.692v-8.23h-5.185v8.295c0 4.73-3.175 8.424-9.915 8.424h-32.531v-16.719h-5.055v44.326z" fill="#2e4c5d"/></g><g id="g56" transform="translate(624.84 399.54)"><path id="path58" d="m0 0h-34.735c-12.054 0-15.747-5.702-15.747-17.237 0-11.6 3.693-17.239 15.747-17.239h34.735v-4.924h-34.735c-14.84 0-20.867 7.257-20.867 22.163 0 14.775 5.897 22.163 20.867 22.163h34.735v-4.926z" fill="#2e4c5d"/></g><g id="g60" transform="translate(633.66 404.47)"><path id="path62" d="m0 0h5.055v-23.395c0-12.701 4.99-16.654 21.709-16.654 16.849 0 21.774 3.953 21.774 16.654v23.395h4.99v-23.395c0-15.618-7.063-21.514-26.764-21.514-19.246 0-26.764 5.573-26.764 21.514v23.395z" fill="#2e4c5d"/></g><g id="g64" transform="translate(703.98 404.47)"><path id="path66" d="m0 0v-26.829c0-9.138 4.342-12.572 15.747-12.572h28.838v-4.925h-28.838c-14.321 0-20.802 5.119-20.802 17.497v26.829h5.055z" fill="#2e4c5d"/></g><g id="g68" transform="translate(789.78 394.75)"><path id="path70" d="m0 0c-1.685 3.499-3.823 5.768-7.712 5.768-3.953 0-6.091-2.269-7.776-5.768l-8.295-16.979h32.078l-8.295 16.979zm22.422-34.605h-5.443l-6.416 13.155h-36.614l-6.416-13.155h-5.379l17.433 35.707c2.916 6.026 6.48 9.202 12.701 9.202 6.222 0 9.656-3.176 12.637-9.202l17.497-35.707z" fill="#2e4c5d"/></g><g id="g72" transform="translate(859.06 381.33)"><path id="path74" d="m0 0c7.776 0 10.368 4.925 10.368 9.331 0 4.342-2.462 9.332-10.368 9.332h-33.31v-18.663h33.31zm-38.364 23.135h37.975c10.757 0 15.877-5.703 15.877-13.285 0-6.415-3.759-10.758-9.85-12.119 5.833-1.555 8.683-5.573 8.683-10.692v-8.23h-5.183v8.295c0 4.73-3.176 8.424-9.915 8.424h-32.533v-16.719h-5.054v44.326z" fill="#2e4c5d"/></g><g id="g5377" transform="matrix(.45581 .45581 -.45581 .45581 568.4 -30.234)"><g id="g5379" transform="translate(640.5 453.92)"><path id="path5381" d="m0 0c-15.33 0-27.801 12.472-27.801 27.802 0 1.08 0.068 2.142 0.188 3.191l-7.185 1.28c-0.186-1.466-0.294-2.955-0.294-4.471 0-19.35 15.741-35.093 35.092-35.093 4.008 0 7.857 0.684 11.446 1.928l-2.63 6.803c-2.772-0.929-5.734-1.44-8.816-1.44" fill="#2e4c5d"/></g><g id="g5383" transform="translate(675.59 481.72)"><path id="path5385" d="m0 0c0 19.352-15.742 35.093-35.093 35.093-9.781 0-18.633-4.03-25-10.509l4.905-5.404c5.063 5.306 12.197 8.622 20.095 8.622 15.331 0 27.802-12.472 27.802-27.802 0-5.672-1.71-10.95-4.639-15.352l6.52-3.334c3.423 5.415 5.41 11.82 5.41 18.686" fill="#2e4c5d"/></g></g></g></svg>
