<?xml version="1.0" standalone="no"?>
<!DOCTYPE svg PUBLIC "-//W3C//DTD SVG 20010904//EN"
 "http://www.w3.org/TR/2001/REC-SVG-20010904/DTD/svg10.dtd">
<svg version="1.0" xmlns="http://www.w3.org/2000/svg"
 width="223.000000pt" height="223.000000pt" viewBox="0 0 223.000000 223.000000"
 preserveAspectRatio="xMidYMid meet">
<metadata>
Created by potrace 1.11, written by Peter Selinger 2001-2013
</metadata>
<g transform="translate(0.000000,223.000000) scale(0.100000,-0.100000)"
fill="#000000" stroke="none">
<path d="M739 1977 c-401 -175 -621 -619 -515 -1039 59 -233 206 -433 411
-557 71 -43 225 -105 235 -94 8 9 33 104 28 108 -2 1 -32 12 -67 24 -214 70
-397 258 -476 486 -24 68 -29 101 -33 215 -4 116 -1 148 17 220 65 258 260
469 508 550 37 12 72 26 77 30 4 5 5 27 1 49 l-7 41 -51 0 c-37 0 -75 -10
-128 -33z"/>
<path d="M1556 1854 l-29 -46 44 -36 c151 -124 257 -297 289 -471 16 -88 14
-231 -4 -317 -31 -147 -100 -269 -216 -386 l-76 -77 33 -46 34 -46 50 41 c126
106 219 253 280 440 21 67 24 93 24 240 0 159 -1 169 -32 265 -43 132 -110
247 -201 345 -60 65 -148 140 -164 140 -2 0 -16 -21 -32 -46z"/>
<path d="M978 1870 c-278 -50 -502 -250 -582 -520 -24 -78 -31 -230 -16 -317
6 -40 15 -75 19 -77 4 -3 29 1 57 8 39 10 48 16 46 32 -2 10 -6 70 -9 132 -5
102 -3 121 21 196 36 115 68 169 156 257 164 165 399 220 620 146 l72 -24 20
44 c11 24 17 51 14 58 -3 8 -42 26 -88 40 -92 29 -246 41 -330 25z"/>
<path d="M898 1666 c-150 -54 -285 -204 -333 -370 -26 -90 -22 -223 9 -315 70
-202 231 -337 442 -371 37 -6 71 -7 75 -3 4 4 9 30 10 57 l3 50 -69 12 c-191
32 -338 178 -363 361 -31 225 91 410 321 487 10 3 16 9 14 13 -3 5 -10 27 -16
51 -13 47 -27 51 -93 28z"/>
<path d="M1310 1598 c-25 -55 -25 -63 3 -75 67 -32 159 -143 186 -224 52 -160
15 -332 -95 -445 l-42 -42 30 -46 c17 -25 33 -46 37 -46 15 0 102 99 136 155
52 88 75 171 75 274 -1 107 -12 156 -56 248 -39 81 -137 189 -203 222 -22 12
-43 21 -46 21 -3 0 -15 -19 -25 -42z"/>
<path d="M1664 1509 c-16 -12 -33 -26 -38 -30 -5 -4 9 -47 30 -96 l39 -88 0
-140 c0 -129 -3 -145 -28 -210 -76 -191 -230 -333 -413 -378 -139 -35 -261
-28 -383 20 l-64 26 -18 -24 c-40 -53 -44 -68 -23 -84 35 -26 171 -66 257 -75
483 -50 879 390 781 868 -18 90 -75 226 -96 230 -8 1 -28 -7 -44 -19z"/>
<path d="M1000 1485 c-130 -37 -243 -169 -252 -295 l-3 -45 37 -3 c35 -3 36
-2 43 40 11 63 29 101 72 148 131 147 376 107 453 -73 12 -28 23 -53 25 -55 1
-1 16 3 33 9 39 13 40 30 6 95 -78 149 -252 224 -414 179z"/>
<path d="M1340 1010 c0 -18 -61 -79 -107 -106 -36 -21 -64 -28 -118 -32 -82
-5 -136 13 -198 67 -29 26 -40 30 -55 22 -44 -24 -44 -36 -1 -76 71 -64 140
-90 239 -90 71 0 94 4 141 26 65 31 129 85 158 135 l20 34 -29 15 c-33 17 -50
19 -50 5z"/>
</g>
</svg>
